<?xml version="1.0" encoding="utf-8"?>
<!-- Generator: Adobe Illustrator 19.2.1, SVG Export Plug-In . SVG Version: 6.00 Build 0)  -->
<svg version="1.1" id="Layer_1" xmlns="http://www.w3.org/2000/svg" xmlns:xlink="http://www.w3.org/1999/xlink" x="0px" y="0px"
	 viewBox="0 0 87 75.4" style="enable-background:new 0 0 87 75.4;" xml:space="preserve">
<style type="text/css">
	.st0{fill:#2B98E2;}
	.st1{fill:#FF7700;}
</style>
<g>
	<polygon class="st0" points="31.1,57 41.3,75.4 41.3,57 	"/>
	<polygon class="st0" points="41.3,53 41.3,29.6 21.6,40.8 28.9,53 	"/>
	<polygon class="st0" points="46.3,29.7 46.3,53 58,53 65.6,40.9 	"/>
	<polygon class="st1" points="39.5,26.3 18.8,14.3 12.5,25.1 19.8,37.7 	"/>
	<polygon class="st1" points="0,3.5 10.3,21.3 15.4,12.4 	"/>
	<polygon class="st0" points="55.8,57 46.3,57 46.3,75.4 	"/>
	<polygon class="st1" points="20.6,11 41.3,23 41.3,0 27.1,0 	"/>
	<polygon class="st1" points="46.3,22.9 66.6,11 59.8,0 46.3,0 	"/>
	<polygon class="st1" points="17.4,9.1 22.6,0 1.5,0 	"/>
	<polygon class="st1" points="69.5,9.1 85.3,0 64.3,0 	"/>
	<polygon class="st0" points="71.4,12.3 76.6,21.3 87,3.4 	"/>
	<polygon class="st0" points="68.1,14.2 47.2,26.3 67.1,37.7 74.4,25.1 	"/>
</g>
</svg>
