<?xml version="1.0" encoding="utf-8"?>
<!-- Generator: Adobe Illustrator 19.2.1, SVG Export Plug-In . SVG Version: 6.00 Build 0)  -->
<svg version="1.1" id="Layer_1" xmlns="http://www.w3.org/2000/svg" xmlns:xlink="http://www.w3.org/1999/xlink" x="0px" y="0px"
	 viewBox="0 0 250.2 250" style="enable-background:new 0 0 250.2 250;" xml:space="preserve">
<style type="text/css">
	.st0{fill:#FF6600;}
	.st1{fill:#FF7700;}
</style>
<path class="st0" d="M204.8,39.2c0,0,12.6-11.8,36.6-11.8l-22.2-21c0,0-26.5-0.2-46.5,24.1L204.8,39.2z"/>
<path class="st0" d="M190.1,35.2c0,0,3.1-21.6-9.7-35.2l-33,3.7c0,0,10.4,7.3,15.5,25.1L190.1,35.2z"/>
<path class="st0" d="M158.3,218.1l-60.6,0c-1.2,0-28.4-0.8-43.9-18.2c-15.4-17.4-29.6-29.6-32.7-32.2c-4.1-2.2-18.5-10.8-20.8-23.9
	c-1.4-8.3,2.1-16.5,10.5-24.3l0-43.5c0-0.6,0.6-15.4,15.5-30.1c8.6-8.5,20.3-15.2,34.6-20c15.3-5.1,33.8-8,54.8-8.7v-0.1l8.7,0
	c0.1,0,0.2,0,0.2,0l0.2,0l8.9-0.1v0.2c21,0.7,39.6,3.6,54.9,8.7c14.4,4.8,26.1,11.5,34.7,20c14.9,14.7,15.4,29.5,15.4,30.1v0.1v43.4
	c9,8,12.3,16.4,11.2,25c-1.7,12.8-14.2,21.4-17.9,23.7c-2.7,2.6-15.1,14.3-30.5,31.8c-15.5,17.5-41.9,18.2-43.1,18.2L158.3,218.1z
	 M98.2,204.7H158c1.6,0,18.9-1,29-12.4c18-20.3,31.5-32.8,32.1-33.3l0.7-0.7l0.8-0.5c0.5-0.3,10.7-6.3,11.7-14.8
	c0.7-5.3-2.5-10.8-9.2-16.5l-2.4-1.9V76.2c0-0.7-0.8-11.7-12.1-22.5c-15.7-15-44.6-23-83.8-23h-0.2h-0.2c-39.5,0-68.5,8.2-84.1,23.6
	C29.4,64.9,28.8,75.5,28.8,76.2v48.4l-2.5,1.9c-6.4,5.4-9.3,10.5-8.5,15.4c1.5,8.7,13.7,14.8,13.8,14.9l0.9,0.5l0.8,0.6
	c0.7,0.6,16.8,13.9,35,34.4C78.3,203.6,96.8,204.7,98.2,204.7z"/>
<path class="st0" d="M231.8,79.8c0,0-26-36.1-103-36.3v0c0,0-0.9,0-1,0c-0.1,0,1,0-1,0v0c-76,0.2-103,28.5-103,28.5v41.6
	c35-23.6,99.2-24.2,104-24.4c4.8,0.2,69,3,104,26.7V79.8z"/>
<polygon class="st1" points="70.5,112.2 96.2,131.8 105.8,124.9 "/>
<polygon class="st1" points="183.4,112.2 157.7,131.8 148.1,124.9 "/>
<path class="st0" d="M128.8,153.9c-59-1.6-54.3,96.1-54.3,96.1l28.7-14.9c-6-94.1,25.6-57.6,25.6-57.6s31.5-36.5,25.5,57.6
	l28.5,14.9C182.8,250,186.8,152.3,128.8,153.9z"/>
</svg>
